<mxfile host="app.diagrams.net" modified="2024-02-19T15:11:22.868Z" agent="Mozilla/5.0 (Windows NT 10.0; Win64; x64) AppleWebKit/537.36 (KHTML, like Gecko) Chrome/121.0.0.0 Safari/537.36" etag="1j5TEZAJlBYZxOygix5i" version="23.1.5" type="github">
  <diagram name="Page-1" id="58cdce13-f638-feb5-8d6f-7d28b1aa9fa0">
    <mxGraphModel dx="1434" dy="1760" grid="1" gridSize="10" guides="1" tooltips="1" connect="1" arrows="1" fold="1" page="1" pageScale="1" pageWidth="1100" pageHeight="850" background="none" math="0" shadow="0">
      <root>
        <mxCell id="0" />
        <mxCell id="1" parent="0" />
        <mxCell id="L4F7Vn-OBia6wz1-xTaq-3" value="Await pkt from layer 5" style="ellipse;whiteSpace=wrap;html=1;aspect=fixed;" vertex="1" parent="1">
          <mxGeometry x="230" y="120" width="80" height="80" as="geometry" />
        </mxCell>
        <mxCell id="L4F7Vn-OBia6wz1-xTaq-4" value="Wait ACK layer 3" style="ellipse;whiteSpace=wrap;html=1;aspect=fixed;" vertex="1" parent="1">
          <mxGeometry x="810" y="120" width="80" height="80" as="geometry" />
        </mxCell>
        <mxCell id="L4F7Vn-OBia6wz1-xTaq-5" value="Wait ACK layer 3" style="ellipse;whiteSpace=wrap;html=1;aspect=fixed;" vertex="1" parent="1">
          <mxGeometry x="230" y="460" width="80" height="80" as="geometry" />
        </mxCell>
        <mxCell id="L4F7Vn-OBia6wz1-xTaq-6" value="Await pkt layer 5" style="ellipse;whiteSpace=wrap;html=1;aspect=fixed;" vertex="1" parent="1">
          <mxGeometry x="810" y="460" width="80" height="80" as="geometry" />
        </mxCell>
        <mxCell id="L4F7Vn-OBia6wz1-xTaq-22" value="" style="curved=1;endArrow=classic;html=1;rounded=0;exitX=0.063;exitY=0.838;exitDx=0;exitDy=0;exitPerimeter=0;" edge="1" parent="1" source="L4F7Vn-OBia6wz1-xTaq-3" target="L4F7Vn-OBia6wz1-xTaq-3">
          <mxGeometry width="50" height="50" relative="1" as="geometry">
            <mxPoint x="170" y="180" as="sourcePoint" />
            <mxPoint x="220" y="130" as="targetPoint" />
            <Array as="points">
              <mxPoint x="220" y="180" />
              <mxPoint x="170" y="130" />
            </Array>
          </mxGeometry>
        </mxCell>
        <mxCell id="L4F7Vn-OBia6wz1-xTaq-23" value="HOST A" style="text;html=1;align=center;verticalAlign=middle;resizable=0;points=[];autosize=1;strokeColor=none;fillColor=none;fontSize=20;" vertex="1" parent="1">
          <mxGeometry x="105" y="-10" width="100" height="40" as="geometry" />
        </mxCell>
        <mxCell id="L4F7Vn-OBia6wz1-xTaq-24" value="&lt;font style=&quot;font-size: 15px;&quot;&gt;Grupp 27&lt;br&gt;Kurs: DVGB02&lt;br&gt;Kasper, Hansoe&lt;/font&gt;" style="text;html=1;align=center;verticalAlign=middle;resizable=0;points=[];autosize=1;strokeColor=none;fillColor=none;" vertex="1" parent="1">
          <mxGeometry x="980" y="-2" width="130" height="70" as="geometry" />
        </mxCell>
        <mxCell id="L4F7Vn-OBia6wz1-xTaq-26" value="A_output();" style="text;html=1;align=center;verticalAlign=middle;resizable=0;points=[];autosize=1;strokeColor=none;fillColor=none;" vertex="1" parent="1">
          <mxGeometry x="105" y="111" width="80" height="30" as="geometry" />
        </mxCell>
        <mxCell id="L4F7Vn-OBia6wz1-xTaq-32" value="" style="line;strokeWidth=2;html=1;" vertex="1" parent="1">
          <mxGeometry x="110" y="133" width="70" height="10" as="geometry" />
        </mxCell>
        <mxCell id="L4F7Vn-OBia6wz1-xTaq-35" value="count++;" style="text;html=1;align=center;verticalAlign=middle;resizable=0;points=[];autosize=1;strokeColor=none;fillColor=none;" vertex="1" parent="1">
          <mxGeometry x="110" y="138" width="70" height="30" as="geometry" />
        </mxCell>
        <mxCell id="L4F7Vn-OBia6wz1-xTaq-39" value="" style="curved=1;endArrow=classic;html=1;rounded=0;exitX=0.988;exitY=0.213;exitDx=0;exitDy=0;exitPerimeter=0;" edge="1" parent="1" source="L4F7Vn-OBia6wz1-xTaq-3" target="L4F7Vn-OBia6wz1-xTaq-4">
          <mxGeometry width="50" height="50" relative="1" as="geometry">
            <mxPoint x="460" y="160" as="sourcePoint" />
            <mxPoint x="750" y="110" as="targetPoint" />
            <Array as="points">
              <mxPoint x="340" y="120" />
              <mxPoint x="390" y="100" />
              <mxPoint x="580" y="60" />
            </Array>
          </mxGeometry>
        </mxCell>
        <mxCell id="L4F7Vn-OBia6wz1-xTaq-42" value="" style="curved=1;endArrow=classic;html=1;rounded=0;entryX=1;entryY=1;entryDx=0;entryDy=0;exitX=0;exitY=0.688;exitDx=0;exitDy=0;exitPerimeter=0;" edge="1" parent="1" source="L4F7Vn-OBia6wz1-xTaq-6" target="L4F7Vn-OBia6wz1-xTaq-5">
          <mxGeometry width="50" height="50" relative="1" as="geometry">
            <mxPoint x="720" y="580" as="sourcePoint" />
            <mxPoint x="620" y="520" as="targetPoint" />
            <Array as="points">
              <mxPoint x="620" y="570" />
              <mxPoint x="570" y="600" />
              <mxPoint x="570" y="520" />
            </Array>
          </mxGeometry>
        </mxCell>
        <mxCell id="L4F7Vn-OBia6wz1-xTaq-44" value="Await pkt layer 3" style="ellipse;whiteSpace=wrap;html=1;aspect=fixed;" vertex="1" parent="1">
          <mxGeometry x="125" y="620" width="80" height="80" as="geometry" />
        </mxCell>
        <mxCell id="L4F7Vn-OBia6wz1-xTaq-45" value="" style="curved=1;endArrow=classic;html=1;rounded=0;exitX=0.038;exitY=0.8;exitDx=0;exitDy=0;exitPerimeter=0;entryX=0;entryY=0;entryDx=0;entryDy=0;" edge="1" parent="1" source="L4F7Vn-OBia6wz1-xTaq-44" target="L4F7Vn-OBia6wz1-xTaq-44">
          <mxGeometry width="50" height="50" relative="1" as="geometry">
            <mxPoint x="60" y="680" as="sourcePoint" />
            <mxPoint x="110" y="630" as="targetPoint" />
            <Array as="points">
              <mxPoint x="110" y="680" />
              <mxPoint x="60" y="630" />
            </Array>
          </mxGeometry>
        </mxCell>
        <mxCell id="L4F7Vn-OBia6wz1-xTaq-46" value="&lt;font style=&quot;font-size: 20px;&quot;&gt;HOST B&lt;/font&gt;" style="text;html=1;align=center;verticalAlign=middle;resizable=0;points=[];autosize=1;strokeColor=none;fillColor=none;" vertex="1" parent="1">
          <mxGeometry x="105" y="563" width="100" height="40" as="geometry" />
        </mxCell>
        <mxCell id="L4F7Vn-OBia6wz1-xTaq-47" value="A_input();" style="text;html=1;align=center;verticalAlign=middle;resizable=0;points=[];autosize=1;strokeColor=none;fillColor=none;" vertex="1" parent="1">
          <mxGeometry x="95" y="290" width="80" height="30" as="geometry" />
        </mxCell>
        <mxCell id="L4F7Vn-OBia6wz1-xTaq-48" value="" style="line;strokeWidth=2;html=1;" vertex="1" parent="1">
          <mxGeometry x="100" y="312" width="70" height="10" as="geometry" />
        </mxCell>
        <mxCell id="L4F7Vn-OBia6wz1-xTaq-49" value="stoptimer(A);&lt;br&gt;count--;" style="text;html=1;align=center;verticalAlign=middle;resizable=0;points=[];autosize=1;strokeColor=none;fillColor=none;" vertex="1" parent="1">
          <mxGeometry x="90" y="312" width="90" height="40" as="geometry" />
        </mxCell>
        <mxCell id="L4F7Vn-OBia6wz1-xTaq-50" value="" style="curved=1;endArrow=classic;html=1;rounded=0;exitX=0;exitY=0.75;exitDx=0;exitDy=0;exitPerimeter=0;" edge="1" parent="1" source="L4F7Vn-OBia6wz1-xTaq-5">
          <mxGeometry width="50" height="50" relative="1" as="geometry">
            <mxPoint x="170" y="550" as="sourcePoint" />
            <mxPoint x="220" y="500" as="targetPoint" />
            <Array as="points">
              <mxPoint x="220" y="550" />
              <mxPoint x="170" y="500" />
            </Array>
          </mxGeometry>
        </mxCell>
        <mxCell id="L4F7Vn-OBia6wz1-xTaq-51" value="A_input();" style="text;html=1;align=center;verticalAlign=middle;resizable=0;points=[];autosize=1;strokeColor=none;fillColor=none;" vertex="1" parent="1">
          <mxGeometry x="100" y="460" width="80" height="30" as="geometry" />
        </mxCell>
        <mxCell id="L4F7Vn-OBia6wz1-xTaq-52" value="" style="line;strokeWidth=2;html=1;" vertex="1" parent="1">
          <mxGeometry x="105" y="482" width="70" height="10" as="geometry" />
        </mxCell>
        <mxCell id="L4F7Vn-OBia6wz1-xTaq-53" value="stoptimer(A);&lt;br&gt;count--;" style="text;html=1;align=center;verticalAlign=middle;resizable=0;points=[];autosize=1;strokeColor=none;fillColor=none;" vertex="1" parent="1">
          <mxGeometry x="95" y="482" width="90" height="40" as="geometry" />
        </mxCell>
        <mxCell id="L4F7Vn-OBia6wz1-xTaq-54" value="" style="curved=1;endArrow=classic;html=1;rounded=0;entryX=0.5;entryY=1;entryDx=0;entryDy=0;" edge="1" parent="1" source="L4F7Vn-OBia6wz1-xTaq-5" target="L4F7Vn-OBia6wz1-xTaq-5">
          <mxGeometry width="50" height="50" relative="1" as="geometry">
            <mxPoint x="280" y="620" as="sourcePoint" />
            <mxPoint x="330" y="570" as="targetPoint" />
            <Array as="points">
              <mxPoint x="330" y="620" />
              <mxPoint x="280" y="570" />
            </Array>
          </mxGeometry>
        </mxCell>
        <mxCell id="L4F7Vn-OBia6wz1-xTaq-55" value="A_timerinterrupt();" style="text;html=1;align=center;verticalAlign=middle;resizable=0;points=[];autosize=1;strokeColor=none;fillColor=none;" vertex="1" parent="1">
          <mxGeometry x="255" y="600" width="120" height="30" as="geometry" />
        </mxCell>
        <mxCell id="L4F7Vn-OBia6wz1-xTaq-56" value="" style="line;strokeWidth=2;html=1;" vertex="1" parent="1">
          <mxGeometry x="280" y="622" width="70" height="10" as="geometry" />
        </mxCell>
        <mxCell id="L4F7Vn-OBia6wz1-xTaq-57" value="tolayer5();" style="text;html=1;align=center;verticalAlign=middle;resizable=0;points=[];autosize=1;strokeColor=none;fillColor=none;" vertex="1" parent="1">
          <mxGeometry x="275" y="627" width="80" height="30" as="geometry" />
        </mxCell>
        <mxCell id="L4F7Vn-OBia6wz1-xTaq-58" value="tolayer3();" style="text;html=1;align=center;verticalAlign=middle;resizable=0;points=[];autosize=1;strokeColor=none;fillColor=none;" vertex="1" parent="1">
          <mxGeometry x="485" y="6" width="80" height="30" as="geometry" />
        </mxCell>
        <mxCell id="L4F7Vn-OBia6wz1-xTaq-59" value="" style="line;strokeWidth=2;html=1;" vertex="1" parent="1">
          <mxGeometry x="490" y="28" width="70" height="10" as="geometry" />
        </mxCell>
        <mxCell id="L4F7Vn-OBia6wz1-xTaq-60" value="starttimer();" style="text;html=1;align=center;verticalAlign=middle;resizable=0;points=[];autosize=1;strokeColor=none;fillColor=none;" vertex="1" parent="1">
          <mxGeometry x="485" y="33" width="80" height="30" as="geometry" />
        </mxCell>
        <mxCell id="L4F7Vn-OBia6wz1-xTaq-61" value="tolayer3();" style="text;html=1;align=center;verticalAlign=middle;resizable=0;points=[];autosize=1;strokeColor=none;fillColor=none;" vertex="1" parent="1">
          <mxGeometry x="485" y="552" width="80" height="30" as="geometry" />
        </mxCell>
        <mxCell id="L4F7Vn-OBia6wz1-xTaq-62" value="" style="line;strokeWidth=2;html=1;" vertex="1" parent="1">
          <mxGeometry x="490" y="574" width="70" height="10" as="geometry" />
        </mxCell>
        <mxCell id="L4F7Vn-OBia6wz1-xTaq-63" value="starttimer();" style="text;html=1;align=center;verticalAlign=middle;resizable=0;points=[];autosize=1;strokeColor=none;fillColor=none;" vertex="1" parent="1">
          <mxGeometry x="485" y="579" width="80" height="30" as="geometry" />
        </mxCell>
        <mxCell id="L4F7Vn-OBia6wz1-xTaq-64" value="" style="curved=1;endArrow=classic;html=1;rounded=0;exitX=1;exitY=0.5;exitDx=0;exitDy=0;" edge="1" parent="1" source="L4F7Vn-OBia6wz1-xTaq-6" target="L4F7Vn-OBia6wz1-xTaq-6">
          <mxGeometry width="50" height="50" relative="1" as="geometry">
            <mxPoint x="900" y="600" as="sourcePoint" />
            <mxPoint x="950" y="550" as="targetPoint" />
            <Array as="points">
              <mxPoint x="950" y="600" />
              <mxPoint x="900" y="550" />
            </Array>
          </mxGeometry>
        </mxCell>
        <mxCell id="L4F7Vn-OBia6wz1-xTaq-65" value="A_output();" style="text;html=1;align=center;verticalAlign=middle;resizable=0;points=[];autosize=1;strokeColor=none;fillColor=none;" vertex="1" parent="1">
          <mxGeometry x="935" y="560" width="80" height="30" as="geometry" />
        </mxCell>
        <mxCell id="L4F7Vn-OBia6wz1-xTaq-66" value="" style="line;strokeWidth=2;html=1;" vertex="1" parent="1">
          <mxGeometry x="940" y="582" width="70" height="10" as="geometry" />
        </mxCell>
        <mxCell id="L4F7Vn-OBia6wz1-xTaq-67" value="count++;" style="text;html=1;align=center;verticalAlign=middle;resizable=0;points=[];autosize=1;strokeColor=none;fillColor=none;" vertex="1" parent="1">
          <mxGeometry x="940" y="587" width="70" height="30" as="geometry" />
        </mxCell>
        <mxCell id="L4F7Vn-OBia6wz1-xTaq-68" value="A_input();" style="text;html=1;align=center;verticalAlign=middle;resizable=0;points=[];autosize=1;strokeColor=none;fillColor=none;" vertex="1" parent="1">
          <mxGeometry x="845" y="274" width="80" height="30" as="geometry" />
        </mxCell>
        <mxCell id="L4F7Vn-OBia6wz1-xTaq-69" value="" style="line;strokeWidth=2;html=1;" vertex="1" parent="1">
          <mxGeometry x="850" y="296" width="70" height="10" as="geometry" />
        </mxCell>
        <mxCell id="L4F7Vn-OBia6wz1-xTaq-70" value="stoptimer(A);&lt;br&gt;count--;" style="text;html=1;align=center;verticalAlign=middle;resizable=0;points=[];autosize=1;strokeColor=none;fillColor=none;" vertex="1" parent="1">
          <mxGeometry x="840" y="296" width="90" height="40" as="geometry" />
        </mxCell>
        <mxCell id="L4F7Vn-OBia6wz1-xTaq-71" value="" style="curved=1;endArrow=classic;html=1;rounded=0;entryX=0.4;entryY=-0.037;entryDx=0;entryDy=0;entryPerimeter=0;exitX=0.5;exitY=1;exitDx=0;exitDy=0;" edge="1" parent="1" source="L4F7Vn-OBia6wz1-xTaq-4" target="L4F7Vn-OBia6wz1-xTaq-6">
          <mxGeometry width="50" height="50" relative="1" as="geometry">
            <mxPoint x="800" y="270" as="sourcePoint" />
            <mxPoint x="850" y="220" as="targetPoint" />
            <Array as="points">
              <mxPoint x="850" y="270" />
              <mxPoint x="800" y="220" />
            </Array>
          </mxGeometry>
        </mxCell>
        <mxCell id="L4F7Vn-OBia6wz1-xTaq-72" value="" style="curved=1;endArrow=classic;html=1;rounded=0;exitX=0.313;exitY=0.063;exitDx=0;exitDy=0;exitPerimeter=0;" edge="1" parent="1" source="L4F7Vn-OBia6wz1-xTaq-4" target="L4F7Vn-OBia6wz1-xTaq-4">
          <mxGeometry width="50" height="50" relative="1" as="geometry">
            <mxPoint x="810" y="120" as="sourcePoint" />
            <mxPoint x="870" y="110" as="targetPoint" />
            <Array as="points">
              <mxPoint x="860" y="120" />
              <mxPoint x="810" y="70" />
            </Array>
          </mxGeometry>
        </mxCell>
        <mxCell id="L4F7Vn-OBia6wz1-xTaq-73" value="" style="curved=1;endArrow=classic;html=1;rounded=0;entryX=1;entryY=0.5;entryDx=0;entryDy=0;exitX=1.025;exitY=0.75;exitDx=0;exitDy=0;exitPerimeter=0;" edge="1" parent="1" source="L4F7Vn-OBia6wz1-xTaq-4" target="L4F7Vn-OBia6wz1-xTaq-4">
          <mxGeometry width="50" height="50" relative="1" as="geometry">
            <mxPoint x="930" y="190" as="sourcePoint" />
            <mxPoint x="980" y="140" as="targetPoint" />
            <Array as="points">
              <mxPoint x="980" y="190" />
              <mxPoint x="930" y="140" />
            </Array>
          </mxGeometry>
        </mxCell>
        <mxCell id="L4F7Vn-OBia6wz1-xTaq-74" value="A_timerinterrupt()" style="text;html=1;align=center;verticalAlign=middle;resizable=0;points=[];autosize=1;strokeColor=none;fillColor=none;" vertex="1" parent="1">
          <mxGeometry x="775" y="28" width="120" height="30" as="geometry" />
        </mxCell>
        <mxCell id="L4F7Vn-OBia6wz1-xTaq-75" value="" style="line;strokeWidth=2;html=1;" vertex="1" parent="1">
          <mxGeometry x="800" y="50" width="70" height="10" as="geometry" />
        </mxCell>
        <mxCell id="L4F7Vn-OBia6wz1-xTaq-76" value="starttimer();" style="text;html=1;align=center;verticalAlign=middle;resizable=0;points=[];autosize=1;strokeColor=none;fillColor=none;" vertex="1" parent="1">
          <mxGeometry x="795" y="55" width="80" height="30" as="geometry" />
        </mxCell>
        <mxCell id="L4F7Vn-OBia6wz1-xTaq-77" value="A_input();" style="text;html=1;align=center;verticalAlign=middle;resizable=0;points=[];autosize=1;strokeColor=none;fillColor=none;" vertex="1" parent="1">
          <mxGeometry x="965" y="138" width="80" height="30" as="geometry" />
        </mxCell>
        <mxCell id="L4F7Vn-OBia6wz1-xTaq-78" value="" style="line;strokeWidth=2;html=1;" vertex="1" parent="1">
          <mxGeometry x="970" y="160" width="70" height="10" as="geometry" />
        </mxCell>
        <mxCell id="L4F7Vn-OBia6wz1-xTaq-79" value="tolayer3();" style="text;html=1;align=center;verticalAlign=middle;resizable=0;points=[];autosize=1;strokeColor=none;fillColor=none;" vertex="1" parent="1">
          <mxGeometry x="965" y="165" width="80" height="30" as="geometry" />
        </mxCell>
        <mxCell id="L4F7Vn-OBia6wz1-xTaq-80" value="" style="curved=1;endArrow=classic;html=1;rounded=0;entryX=0.213;entryY=0.988;entryDx=0;entryDy=0;entryPerimeter=0;exitX=0.375;exitY=0;exitDx=0;exitDy=0;exitPerimeter=0;" edge="1" parent="1" source="L4F7Vn-OBia6wz1-xTaq-5" target="L4F7Vn-OBia6wz1-xTaq-3">
          <mxGeometry width="50" height="50" relative="1" as="geometry">
            <mxPoint x="230" y="360" as="sourcePoint" />
            <mxPoint x="280" y="310" as="targetPoint" />
            <Array as="points">
              <mxPoint x="220" y="380" />
              <mxPoint x="230" y="310" />
            </Array>
          </mxGeometry>
        </mxCell>
        <mxCell id="L4F7Vn-OBia6wz1-xTaq-81" value="B_input();" style="text;html=1;align=center;verticalAlign=middle;resizable=0;points=[];autosize=1;strokeColor=none;fillColor=none;" vertex="1" parent="1">
          <mxGeometry x="10" y="650" width="80" height="30" as="geometry" />
        </mxCell>
        <mxCell id="L4F7Vn-OBia6wz1-xTaq-82" value="" style="line;strokeWidth=2;html=1;" vertex="1" parent="1">
          <mxGeometry x="15" y="672" width="70" height="10" as="geometry" />
        </mxCell>
        <mxCell id="L4F7Vn-OBia6wz1-xTaq-83" value="tolayer3();&lt;br&gt;tolayer5();" style="text;html=1;align=center;verticalAlign=middle;resizable=0;points=[];autosize=1;strokeColor=none;fillColor=none;" vertex="1" parent="1">
          <mxGeometry x="10" y="672" width="80" height="40" as="geometry" />
        </mxCell>
      </root>
    </mxGraphModel>
  </diagram>
</mxfile>
